<?xml version="1.0" encoding="utf-8"?><svg version="1.1" id="Layer_1" xmlns="http://www.w3.org/2000/svg" xmlns:xlink="http://www.w3.org/1999/xlink" x="0px" y="0px" viewBox="0 0 122.58 122.88" style="enable-background:new 0 0 122.58 122.88" xml:space="preserve"><style type="text/css"><![CDATA[
	.st0{fill-rule:evenodd;clip-rule:evenodd;}
]]></style><g><path class="st0" d="M3.52,107.5h12.47V75.44c0.2,0,0.4,0,0.6,0h0.1h0.2l0,0l0,0h0.2l0,0h0.1l0,0l0,0l0,0 c5.63,0,10.86-1.81,14.98-4.83l0,0l0,0l0,0l0,0l0,0l0,0l0,0l0,0l0,0l0,0l0,0l0,0l0.1,0.1l0,0l0,0l0,0h0.1l0,0l0,0l0,0l0,0l0,0l0,0 l0,0v0.1l0,0l0,0l0,0l0,0l0,0l0,0l0,0l0,0l0,0l0,0l0.2,0.2l0,0l0,0l0.2,0.1l0,0l0.2,0.1l0,0l0,0l0,0l0,0l0,0l0,0l0,0l0,0v28.33 c17.3,0,37.89,0,55.21,0V72.53c0.91-0.5,1.71-1,2.61-1.51l0,0l0,0l0.2-0.1l0,0h0.1h0.1l0,0l0.1-0.1l0,0l0,0l0.2-0.1 c4.12,3.02,9.35,4.93,15.08,4.93v31.95h12.47c1.91,0,3.52,3.42,3.52,7.64c0,4.22-1.61,7.64-3.52,7.64H3.52 c-1.91,0-3.52-3.42-3.52-7.64C0,111.01,1.61,107.5,3.52,107.5L3.52,107.5L3.52,107.5L3.52,107.5z M21.22,0h82.15 c1.91,0,3.52,1.61,3.52,3.52c0,1.91-1.61,3.52-3.52,3.52H21.22c-1.91,0-3.52-1.61-3.52-3.52C17.7,1.61,19.31,0,21.22,0L21.22,0 L21.22,0L21.22,0z M122.13,49.11v4.09c0,0.4,0.1,0.8,0.1,1.21c0,7.14-6.64,12.87-14.78,12.87c-8.15,0-14.78-5.73-14.78-12.87 c0-0.3,0-0.6,0-0.91h-0.6c0,0.3,0,0.6,0,0.91c0,7.14-6.64,12.87-14.78,12.87c-8.14,0-14.78-5.73-14.78-12.87c0-0.3,0-0.6,0-0.91 h-0.6c0,0.3,0,0.6,0,0.91c0,7.14-6.64,12.87-14.78,12.87c-8.15,0-14.78-5.73-14.78-12.87c0-0.3,0-0.6,0-0.91h-0.4 c0,0.3,0,0.6,0,0.91c0,7.14-6.64,12.87-14.78,12.87C9,67.28,2.36,61.55,2.36,54.41c0-0.3,0-0.7,0.1-1.01v-4.3l14.78-38.34l0,0l0,0 h90.4L122.13,49.11L122.13,49.11z M59.28,17.12h6.43c1.2,0,2.19,0.98,2.19,2.19v8.32h8.33c1.2,0,2.19,0.98,2.19,2.19v6.43 c0,1.2-0.98,2.19-2.19,2.19H67.9v8.32c0,1.2-0.98,2.19-2.19,2.19h-6.43c-1.2,0-2.19-0.98-2.19-2.19v-8.32h-8.32 c-1.2,0-2.19-0.98-2.19-2.19v-6.43c0-1.2,0.98-2.19,2.19-2.19h8.32v-8.32C57.09,18.11,58.08,17.12,59.28,17.12L59.28,17.12 L59.28,17.12z"/></g></svg>